<?xml version="1.0" encoding="iso-8859-1"?>
<!-- Uploaded to: SVG Repo, www.svgrepo.com, Generator: SVG Repo Mixer Tools -->
<svg height="800px" width="800px" version="1.1" id="Layer_1" xmlns="http://www.w3.org/2000/svg" xmlns:xlink="http://www.w3.org/1999/xlink" 
	 viewBox="0 0 503.179 503.179" xml:space="preserve">
<path style="fill:#00BD98;" d="M325.352,103.936c0-37.315,75.498-56.407,75.498,5.207c0,34.712-5.207,52.068-13.017,81.573h78.97
	c6.075-35.58,6.075-55.539,6.075-97.193c0-117.153-225.627-136.244-225.627,12.149c0,104.136,55.539,158.807,107.607,187.444
	c-43.39,83.309-107.607,131.905-107.607,131.905C82.369,293.983,99.725,69.224,99.725,69.224H30.302
	c1.736,300.258,165.749,404.393,185.708,420.014c19.092,15.62,22.563,13.885,48.597,13.885
	c23.431-0.868,77.234-55.539,143.186-156.203c6.075-9.546,12.149-19.092,17.356-28.637c27.77,6.075,47.729,6.075,47.729,6.075
	v-63.349C333.163,247.99,325.352,132.573,325.352,103.936"/>
</svg>